# xmcd
#
# Track frame offsets: 
#        150
#        36112
#        75093
#        124445
#        160630
#        189512
#        230119
#        243979
#        253024
#        292640
#
# Disc length: 4203 seconds
#
# Revision: 0
# Processed by: cddbd v1.5.2PL0 Copyright (c) Steve Scherf et al.
# Submitted via: ExactAudioCopy v1.0b6
#
DISCID=7810690a
DTITLE=费家 - 半圃微吟
DYEAR=2017
DGENRE=
TTITLE0=忆故人
TTITLE1=渔樵问答
TTITLE2=潇湘水云
TTITLE3=平沙落雁
TTITLE4=鸥鹭忘机
TTITLE5=梅花三弄
TTITLE6=良宵引
TTITLE7=关山月
TTITLE8=普庵咒
TTITLE9=阳关三叠
EXTD=
EXTT0=
EXTT1=
EXTT2=
EXTT3=
EXTT4=
EXTT5=
EXTT6=
EXTT7=
EXTT8=
EXTT9=
PLAYORDER=
